<svg width="64" height="65" viewBox="0 0 64 65" fill="none" xmlns="http://www.w3.org/2000/svg">
<path d="M32 13.46C23.5378 13.46 18.2489 17.6911 16.1333 26.1533C19.3067 21.9222 23.0089 20.3355 27.24 21.3933C29.6533 21.996 31.3787 23.748 33.288 25.6866C36.4027 28.8466 40 32.5 47.8667 32.5C56.3289 32.5 61.6178 28.2688 63.7333 19.8066C60.56 24.0377 56.8578 25.6244 52.6267 24.5666C50.2107 23.964 48.488 22.212 46.5733 20.2733C43.4667 17.1133 39.8667 13.46 32 13.46ZM16.1333 32.5C7.67111 32.5 2.38222 36.7311 0.266663 45.1933C3.44 40.9622 7.14222 39.3755 11.3733 40.4333C13.7867 41.036 15.512 42.788 17.424 44.7266C20.5333 47.8866 24.1333 51.54 32 51.54C40.4622 51.54 45.7511 47.3089 47.8667 38.8466C44.6933 43.0777 40.9911 44.6644 36.76 43.6066C34.344 43.004 32.6213 41.252 30.7067 39.3133C27.6 36.1533 24 32.5 16.1333 32.5Z" fill="black"/>
</svg>
