<svg width="65" height="64" viewBox="0 0 65 64" fill="none" xmlns="http://www.w3.org/2000/svg">
<mask id="mask0_1786_249" style="mask-type:luminance" maskUnits="userSpaceOnUse" x="0" y="0" width="65" height="64">
<path d="M64.2595 0H0V64H64.2595V0Z" fill="white"/>
</mask>
<g mask="url(#mask0_1786_249)">
<path fill-rule="evenodd" clip-rule="evenodd" d="M60.7063 32C61.9362 32 63.1276 31.8356 64.2595 31.5275C63.3596 31.3385 62.4265 31.239 61.4703 31.239H45.5777C42.9527 31.239 40.5031 30.49 38.4333 29.1947C38.8857 26.5567 40.1343 24.0277 42.179 21.9913L52.3365 11.875C53.2062 11.0088 53.9317 10.0534 54.5136 9.03846C53.7428 9.53853 53.0125 10.1253 52.3365 10.7988L41.0985 21.9913C39.2423 23.84 36.9785 25.0352 34.5954 25.5771C33.0423 23.3931 32.1298 20.7255 32.1298 17.8456V3.53898C32.1298 2.31394 31.9646 1.12733 31.6553 0C31.4655 0.896227 31.3657 1.82549 31.3657 2.77798V18.6066C31.3657 21.221 30.6136 23.6604 29.3131 25.722C26.6644 25.2713 24.1251 24.0277 22.0805 21.9913L11.9232 11.875C11.0534 11.0088 10.0942 10.286 9.07512 9.70669C9.57721 10.4741 10.1664 11.2015 10.8426 11.875L22.0805 23.0675C23.9366 24.9162 25.1368 27.1708 25.6808 29.5444C23.4879 31.0911 20.8095 32 17.918 32H3.55333C2.32332 32 1.1319 32.1645 0 32.4726C0.899868 32.6614 1.8329 32.761 2.78926 32.761H18.682C21.307 32.761 23.7564 33.5101 25.8263 34.8054C25.3737 37.4432 24.1251 39.9722 22.0805 42.0086L11.9232 52.1251C11.0534 52.9914 10.3277 53.9466 9.74608 54.9616C10.5166 54.4614 11.2469 53.8746 11.9232 53.2013L23.1611 42.0086C25.0172 40.16 27.281 38.9648 29.6642 38.4227C31.2172 40.607 32.1298 43.2746 32.1298 46.1546V60.4611C32.1298 61.6861 32.2949 62.8726 32.6043 64C32.7939 63.1037 32.8938 62.1744 32.8938 61.2221V45.3933C32.8938 42.7789 33.646 40.3395 34.9466 38.2781C37.595 38.7286 40.1343 39.9722 42.179 42.0086L52.3365 52.1251C53.2062 52.9914 54.1653 53.7139 55.1845 54.2934C54.6823 53.5258 54.093 52.7984 53.417 52.1251L42.179 40.9325C40.3229 39.0838 39.1228 36.8291 38.5788 34.4557C40.7717 32.9088 43.45 32 46.3417 32H60.7063Z" fill="#25252B"/>
</g>
</svg>
